<svg id="visual" viewBox="0 0 1920 1080" width="1920" height="1080" xmlns="http://www.w3.org/2000/svg" xmlns:xlink="http://www.w3.org/1999/xlink" version="1.1"><path d="M0 303L29.2 313.8C58.3 324.7 116.7 346.3 174.8 348.2C233 350 291 332 349.2 335.7C407.3 339.3 465.7 364.7 523.8 357.5C582 350.3 640 310.7 698.2 281.8C756.3 253 814.7 235 872.8 240.3C931 245.7 989 274.3 1047.2 294.2C1105.3 314 1163.7 325 1221.8 334C1280 343 1338 350 1396.2 332C1454.3 314 1512.7 271 1570.8 285.5C1629 300 1687 372 1745.2 370.2C1803.3 368.3 1861.7 292.7 1890.8 254.8L1920 217L1920 0L1890.8 0C1861.7 0 1803.3 0 1745.2 0C1687 0 1629 0 1570.8 0C1512.7 0 1454.3 0 1396.2 0C1338 0 1280 0 1221.8 0C1163.7 0 1105.3 0 1047.2 0C989 0 931 0 872.8 0C814.7 0 756.3 0 698.2 0C640 0 582 0 523.8 0C465.7 0 407.3 0 349.2 0C291 0 233 0 174.8 0C116.7 0 58.3 0 29.2 0L0 0Z" fill="#404042"></path><path d="M0 606L29.2 597C58.3 588 116.7 570 174.8 577.2C233 584.3 291 616.7 349.2 634.7C407.3 652.7 465.7 656.3 523.8 638.3C582 620.3 640 580.7 698.2 586C756.3 591.3 814.7 641.7 872.8 666.8C931 692 989 692 1047.2 668.7C1105.3 645.3 1163.7 598.7 1221.8 586.2C1280 573.7 1338 595.3 1396.2 607.8C1454.3 620.3 1512.7 623.7 1570.8 634.3C1629 645 1687 663 1745.2 650.5C1803.3 638 1861.7 595 1890.8 573.5L1920 552L1920 215L1890.8 252.8C1861.7 290.7 1803.3 366.3 1745.2 368.2C1687 370 1629 298 1570.8 283.5C1512.7 269 1454.3 312 1396.2 330C1338 348 1280 341 1221.8 332C1163.7 323 1105.3 312 1047.2 292.2C989 272.3 931 243.7 872.8 238.3C814.7 233 756.3 251 698.2 279.8C640 308.7 582 348.3 523.8 355.5C465.7 362.7 407.3 337.3 349.2 333.7C291 330 233 348 174.8 346.2C116.7 344.3 58.3 322.7 29.2 311.8L0 301Z" fill="#2f2f30"></path><path d="M0 779L29.2 753.7C58.3 728.3 116.7 677.7 174.8 674C233 670.3 291 713.7 349.2 742.5C407.3 771.3 465.7 785.7 523.8 776.7C582 767.7 640 735.3 698.2 739C756.3 742.7 814.7 782.3 872.8 809.3C931 836.3 989 850.7 1047.2 830.8C1105.3 811 1163.7 757 1221.8 740.8C1280 724.7 1338 746.3 1396.2 753.5C1454.3 760.7 1512.7 753.3 1570.8 751.5C1629 749.7 1687 753.3 1745.2 737.2C1803.3 721 1861.7 685 1890.8 667L1920 649L1920 550L1890.8 571.5C1861.7 593 1803.3 636 1745.2 648.5C1687 661 1629 643 1570.8 632.3C1512.7 621.7 1454.3 618.3 1396.2 605.8C1338 593.3 1280 571.7 1221.8 584.2C1163.7 596.7 1105.3 643.3 1047.2 666.7C989 690 931 690 872.8 664.8C814.7 639.7 756.3 589.3 698.2 584C640 578.7 582 618.3 523.8 636.3C465.7 654.3 407.3 650.7 349.2 632.7C291 614.7 233 582.3 174.8 575.2C116.7 568 58.3 586 29.2 595L0 604Z" fill="#1e1e1f"></path><path d="M0 897L29.2 889.8C58.3 882.7 116.7 868.3 174.8 870.2C233 872 291 890 349.2 899C407.3 908 465.7 908 523.8 909.8C582 911.7 640 915.3 698.2 924.3C756.3 933.3 814.7 947.7 872.8 953C931 958.3 989 954.7 1047.2 924.2C1105.3 893.7 1163.7 836.3 1221.8 832.8C1280 829.3 1338 879.7 1396.2 903C1454.3 926.3 1512.7 922.7 1570.8 928C1629 933.3 1687 947.7 1745.2 931.5C1803.3 915.3 1861.7 868.7 1890.8 845.3L1920 822L1920 647L1890.8 665C1861.7 683 1803.3 719 1745.2 735.2C1687 751.3 1629 747.7 1570.8 749.5C1512.7 751.3 1454.3 758.7 1396.2 751.5C1338 744.3 1280 722.7 1221.8 738.8C1163.7 755 1105.3 809 1047.2 828.8C989 848.7 931 834.3 872.8 807.3C814.7 780.3 756.3 740.7 698.2 737C640 733.3 582 765.7 523.8 774.7C465.7 783.7 407.3 769.3 349.2 740.5C291 711.7 233 668.3 174.8 672C116.7 675.7 58.3 726.3 29.2 751.7L0 777Z" fill="#1b1b1c"></path><path d="M0 1081L29.2 1081C58.3 1081 116.7 1081 174.8 1081C233 1081 291 1081 349.2 1081C407.3 1081 465.7 1081 523.8 1081C582 1081 640 1081 698.2 1081C756.3 1081 814.7 1081 872.8 1081C931 1081 989 1081 1047.2 1081C1105.3 1081 1163.7 1081 1221.8 1081C1280 1081 1338 1081 1396.2 1081C1454.3 1081 1512.7 1081 1570.8 1081C1629 1081 1687 1081 1745.2 1081C1803.3 1081 1861.7 1081 1890.8 1081L1920 1081L1920 820L1890.8 843.3C1861.7 866.7 1803.3 913.3 1745.2 929.5C1687 945.7 1629 931.3 1570.8 926C1512.7 920.7 1454.3 924.3 1396.2 901C1338 877.7 1280 827.3 1221.8 830.8C1163.7 834.3 1105.3 891.7 1047.2 922.2C989 952.7 931 956.3 872.8 951C814.7 945.7 756.3 931.3 698.2 922.3C640 913.3 582 909.7 523.8 907.8C465.7 906 407.3 906 349.2 897C291 888 233 870 174.8 868.2C116.7 866.3 58.3 880.7 29.2 887.8L0 895Z" fill="#181819"></path></svg>